<svg width="239" height="77" xmlns="http://www.w3.org/2000/svg"><g fill="none" fill-rule="evenodd"><g fill="#1A1919"><path d="M62.2 76c-3.2 0-5.4-2.4-5.4-4.8 0-2.2 1.8-4.8 5.4-4.8 3.3 0 5.4 2.4 5.4 4.8.1 2.2-1.7 4.8-5.4 4.8zm.1-7.6c-1.7 0-2.9 1-2.9 2.9 0 2.2 1.8 2.9 3 2.9 1.5 0 3-1 3-2.8-.2-1.9-1.3-3-3.1-3zm-6.9 6.7c-1.3.7-2.4.9-3.6.9-3.6 0-5.5-2.4-5.5-4.8s1.9-4.8 5.7-4.8c1.7 0 2.9.5 3.4.8v2.2c-.4-.3-1.6-1-3.2-1-2 0-3.4 1.1-3.4 2.8 0 1.8 1.6 2.9 3.3 2.9.9 0 1.7-.2 2.5-.6l.9-.5v2.1h-.1z" fill-rule="nonzero"/><path d="M78.8 75.9h-2l-5.2-5.8v5.8h-2.3v-9.4h2.2l5 5.5v-5.5h2.3v9.4zm10.7-7.6h-3.4v7.6h-2.4v-7.6h-3.4v-1.8h9.2v1.8zm1.5 7.6h2.4v-9.4H91v9.4zm14.1 0h-1.9L98 70.1v5.8h-2.4v-9.4h2.2l5 5.5v-5.5h2.3v9.4zm11.6-4.3c0 .7 0 1.9-.8 2.9-1 1.2-2.5 1.5-4 1.5-.7 0-2.7 0-4-1.7-.4-.5-.7-1.2-.7-2.7v-5.1h2.4v4.6c0 .4 0 .9.2 1.5.3 1 1.3 1.5 2.2 1.5 1.4 0 2-.9 2.2-1.4.2-.4.2-.8.2-1.6v-4.6h2.4v5.1h-.1zm2.1 4.3h2.4v-9.4h-2.4v9.4zm14.1 0H131l-5.2-5.8v5.8h-2.4v-9.4h2.2l5 5.5v-5.5h2.3v9.4zm11-6.7c-1.1-.5-2.3-.9-3.5-.9-1.1 0-1.7.3-2.1.5-.7.5-1.3 1.3-1.3 2.5 0 1.7 1.5 2.7 3.1 2.7.6 0 1.1-.1 1.7-.3v-1.1h-1.3v-1.7h3.7v3.9c-1 .8-2.5 1.3-4 1.3-3 0-5.6-1.8-5.6-4.8 0-2.9 2.4-4.8 5.7-4.8 1.9 0 3.1.5 3.7.8v1.9h-.1zm14.2 6.7h-7v-9.4h6.9v1.7h-4.5v1.9h4.3v1.8h-4.3v2.3h4.6v1.7z"/><path d="M163.8 66.5c.6 0 1.5 0 2.5.4.7.3 3 1.4 3 4.3 0 .9-.2 2.9-2.3 4-.9.5-1.8.7-3.4.7H160v-9.4h3.8zm-1.5 1.8v5.8h.9c1.3 0 1.7-.1 2.1-.3 1-.4 1.6-1.3 1.6-2.7 0-1-.4-2.1-1.6-2.6-.6-.2-1.2-.2-1.8-.2h-1.2zm18.2 3.3c0 .7 0 1.9-.8 2.9-1 1.2-2.5 1.5-4 1.5-.7 0-2.7 0-4-1.7-.4-.5-.7-1.2-.7-2.7v-5.1h2.4v4.6c0 .4 0 .9.2 1.5.3 1 1.3 1.5 2.2 1.5 1.4 0 2-.9 2.2-1.4.2-.4.2-.8.2-1.6v-4.6h2.4v5.1h-.1zm10.7 3.5c-1.4.7-2.5.9-3.7.9-3.6 0-5.5-2.4-5.5-4.8s1.9-4.8 5.7-4.8c1.7 0 2.9.5 3.4.8v2.2c-.4-.3-1.6-1-3.2-1-2 0-3.4 1.1-3.4 2.8 0 1.8 1.6 2.9 3.3 2.9.9 0 1.7-.2 2.5-.6l.9-.5v2.1zm11.7.8h-2.5l-.8-1.9h-4.2l-.7 1.9h-2.5l3.8-9.4h2.7l4.2 9.4zm-5.5-7.1l-1.4 3.6h2.9l-1.5-3.6z" fill-rule="nonzero"/><path d="M210.9 68.3h-3.3v7.6h-2.4v-7.6h-3.4v-1.8h9.1v1.8zm1.6 7.6h2.4v-9.4h-2.4v9.4z"/><path d="M221.9 76c-3.2 0-5.4-2.4-5.4-4.8 0-2.2 1.8-4.8 5.4-4.8 3.3 0 5.4 2.4 5.4 4.8 0 2.2-1.8 4.8-5.4 4.8zm0-7.6c-1.7 0-2.9 1-2.9 2.9 0 2.2 1.8 2.9 3 2.9 1.5 0 3-1 3-2.8-.1-1.9-1.3-3-3.1-3z" fill-rule="nonzero"/><path d="M238.4 75.9h-1.9l-5.2-5.8v5.8H229v-9.4h2.1l5 5.5v-5.5h2.3v9.4"/></g><g fill="#A4845C"><path d="M124.8 48.1V51c0 1.7-1.2 2.3-2.6 2.3-1.5 0-2.6-.7-2.6-2.3v-2.9h1.3v3c0 .7.5 1.2 1.3 1.2.7 0 1.3-.4 1.3-1.3v-2.9h1.3z" fill-rule="nonzero"/><path d="M137.3 53.3h-1.1l-2.9-3.3v3.3H132v-5.2h1.2l2.8 3.2v-3.2h1.3v5.2zm7.3 0h1.3v-5.2h-1.3v5.2zm11.2.1h-.6l-2.5-5.3h1.4l1.4 3 1.3-3h1.3l-2.3 5.3zm12.9-.1h-3.8v-5.2h3.8v1h-2.5v1.1h2.3v.9h-2.3v1.3h2.5v.9z"/><path d="M177.1 50.3h.7c.4 0 .7-.2.7-.6 0-.4-.2-.6-.7-.6h-.7v1.2zm1.1-2.2c1.1 0 1.7.7 1.7 1.5 0 .6-.3 1-.9 1.3.5.3.7.9 1.4 2.4H179c-.6-1.1-.8-2.1-1.5-2.1h-.4v2.1h-1.3v-5.2h2.4zm12.4 1.4c-.8-.4-1.2-.5-1.6-.5-.5 0-.8.2-.8.4 0 .8 2.6.6 2.6 2.4 0 1-.8 1.6-2 1.6-.9 0-1.4-.2-1.9-.5v-1.1c.7.5 1.2.7 1.8.7.5 0 .8-.2.8-.5 0-.8-2.6-.5-2.6-2.4 0-.9.8-1.5 2-1.5.6 0 1.1.1 1.8.4v1h-.1z" fill-rule="nonzero"/><path d="M197.9 53.3h1.3v-5.2h-1.3v5.2zm13.3-4.2h-1.9v4.2H208v-4.2h-1.8v-1h5v1zm8.4 1.8l-2-2.8h1.5l1.1 1.6 1.2-1.6h1.5l-2 2.8v2.4h-1.3v-2.4z"/></g><path d="M64.9 32.9c-1.7 1.2-3.8 1.8-6.3 1.8-2.9.1-5.5-.9-7.3-2.7-1.7-1.7-2.5-3.9-2.5-6.4 0-2.6 1-5 2.8-6.7 1.8-1.7 4.2-2.6 6.8-2.6 2 0 3.2.4 4.9 1.3l.8.5v-3.5l-.3-.1c-1.9-.8-3.2-1-5.5-1-3.8 0-7.3 1.3-9.8 3.7-2.2 2.2-3.4 5.2-3.4 8.4 0 3.3 1.3 6.3 3.6 8.5 2.5 2.4 6 3.6 9.8 3.4h.3c2-.1 3.3-.1 5.2-.8l.2-.1 2-4.9-1.3 1.2zm13.2 1.9c-2.6 0-4.7-2.3-4.7-5.2 0-1.6.6-3.1 1.6-4.1.9-.8 1.9-1.3 3.1-1.2 2.6.1 4.7 2.5 4.7 5.3v.2c0 2.6-2.1 5-4.7 5zM84 23.9c-1.5-1.6-3.5-2.5-5.7-2.5-2.1 0-4.3.8-5.8 2.3-1.5 1.5-2.4 3.5-2.4 5.6 0 4.3 3.6 7.9 7.9 8 2.2 0 4.2-.8 5.8-2.3 1.5-1.5 2.4-3.4 2.4-5.5 0-2-.7-4-2.2-5.6zm40.1 9.9c-.9.6-2.5 1.1-4.2 1.1-1.5 0-2.8-.5-3.9-1.6-1-1-1.6-2.4-1.6-3.9 0-3 2.3-5.4 5.3-5.4 1.3 0 2.8.4 3.7 1.1l.9.7v-3.5l-.3-.1c-1.5-.6-2.6-.6-4.1-.7h-.1c-2.5-.1-4.7.8-6.4 2.4-1.5 1.4-2.3 3.4-2.3 5.5v.2c0 2.2.9 4.1 2.4 5.5 1.6 1.5 3.9 2.3 6.4 2.2h.5c1.4 0 2.4-.1 3.9-.7h.1l.2-.1.6-3.6-1.1.9zm14.1 1c-2.6 0-4.7-2.3-4.7-5.2 0-1.6.6-3.1 1.6-4.1.9-.8 1.9-1.3 3.1-1.2 2.6.1 4.7 2.5 4.7 5.3v.2c0 2.6-2.1 5-4.7 5zM144 24c-1.5-1.6-3.5-2.5-5.7-2.5-2.1 0-4.3.8-5.8 2.3-1.5 1.5-2.4 3.5-2.4 5.6 0 4.3 3.6 7.9 7.9 8 2.2 0 4.2-.8 5.8-2.3 1.5-1.5 2.4-3.4 2.4-5.5v-.2c.1-2-.7-3.9-2.2-5.4zm68.1 5.6v2.7c0 1.6-1.7 2.6-3.4 2.6-.8 0-1.6-.3-2.1-.9-.4-.4-.6-.9-.6-1.4v-.2c.1-1.1.9-1.9 2.1-2.1l2.7-.5c.1.1.8-.1 1.3-.2zm4 7.6l-.4-.8c-.2-.3-.3-.5-.3-.9-.1-.4-.1-.6-.1-1v-7.8c0-3.5-2-5.2-6.2-5.3-1.6 0-3.1.1-4.6 1l-.3.2v3.2l.8-.8c.8-.7 2.1-1 3.9-1 1.7 0 3 .9 3 2 0 1-.5 1.3-1.7 1.4 0 0-.3 0-3 .5-3 .5-4.3 1.8-4.4 4.5v.3c0 1.2.4 2.3 1.2 3.1 1 1 2.5 1.6 4.2 1.6 1.1 0 2.4-.2 3.7-1v.9l4.2-.1zm-114-.6l-.8 1h5.4l-.7-.9c-.2-.2-.2-.3-.3-.5-.2-.5-.2-.8-.2-1.2v-7.4c0-1.5-.6-3-1.8-4.1-1.2-1.2-2.9-1.8-4.7-1.7-1.6.1-2.7.5-3.8 1.3v-.7h-3.8l.5 1.5v.2l.1.5V36c0 .2 0 .3-.1.4l-.2.5-.3.4-.3.5h5l-.7-1.5c-.1-.4-.2-.7-.2-1.3v-7.2c0-1.9 1.3-3.3 3.3-3.3 1.1 0 2.3.4 3 1.1.5.5.8 1.1.8 1.7v9.1l-.2.2zm58.8-15.4c-1.1-.2-2.1 0-3.1.5-.4.2-.7.5-1 .7v-.6h-4.5l.6.8c.3.3.4.5.5.8.1.3.1.5.1.9v10.4c0 .4 0 .7-.1 1 0 .2-.1.3-.2.4l-.7 1.1h5.5l-.6-.9c-.2-.4-.3-.6-.4-1-.1-.5-.2-.8-.2-1.3v-6.4c0-1.4.6-2.7 1.6-3.2.7-.4 1.3-.5 2.1-.2l.7.2v-3.2h-.3zm30 15.1l-.7.9h5l-.6-1-.2-.4c-.1-.2-.1-.3-.1-.6V21.9h-4.4l.7.7c.2.2.2.3.3.5.1.2.1.3.1.5v12.5c.1 0 0 .1-.1.2zm-.2-16.8h3.7v-3.8h-3.7v3.8zm-12.8 8.1V31c0 1.2-.4 2.2-1.1 2.8-.7.6-1.6.9-2.7.9-1.1-.1-2.1-.5-2.8-1.4-1-1.2-1.5-2.8-1.3-4.5.2-2.1 1.1-4.6 4.1-4.7 1.1 0 2 .3 2.7 1 .7.6 1.1 1.5 1.1 2.5zm4.4 9.6l-.7-1.1c-.1-.2-.2-.3-.2-.4-.2-1.2-.2-1.9-.2-3.1V13.9h-4.4l.8.9.2.3.1.4v6.9c-1.2-.8-2.4-1.2-3.9-1.1-4.4.2-7 3.1-7.1 8 0 2.5.9 4.9 2.5 6.4 1.3 1.3 3.1 1.9 5 1.8 1.4-.1 2.5-.4 3.6-1.1v.8h4.3z" fill="#7B102A" fill-rule="nonzero"/><g fill="#A4845C"><path d="M73.5 4.6v2.9c0 1.7-1.2 2.3-2.6 2.3-1.5 0-2.6-.7-2.6-2.3V4.6h1.3v3c0 .7.5 1.2 1.3 1.2.7 0 1.3-.4 1.3-1.3V4.6h1.3zM86 9.8h-1l-2.9-3.3v3.3h-1.3V4.6H82l2.7 3.2V4.6H86v5.2zm7.4 0h1.3V4.6h-1.3v5.2zm11.1.1h-.6l-2.5-5.3h1.4l1.4 3 1.3-3h1.4l-2.4 5.3zm13-.1h-3.9V4.6h3.8v1h-2.5v1.1h2.4v.9h-2.4v1.3h2.6v.9z"/><path d="M125.9 6.8h.7c.4 0 .7-.2.7-.6 0-.4-.3-.6-.7-.6h-.7v1.2zm1-2.2c1.1 0 1.7.7 1.7 1.5 0 .6-.3 1-.9 1.3.5.3.7.9 1.4 2.4h-1.4c-.6-1.1-.8-2.1-1.5-2.1h-.4v2.1h-1.3V4.6h2.4zM139.4 6c-.8-.3-1.2-.5-1.6-.5-.5 0-.8.2-.8.4 0 .8 2.6.6 2.6 2.4 0 1-.8 1.6-2 1.6-.9 0-1.3-.2-1.9-.5V8.3c.7.5 1.2.7 1.8.7.5 0 .8-.2.8-.5 0-.9-2.6-.5-2.6-2.4 0-.9.8-1.5 2-1.5.6 0 1.1.1 1.8.4v1h-.1z" fill-rule="nonzero"/><path d="M146.7 9.8h1.2V4.6h-1.2v5.2zM160 5.6h-1.9v4.2h-1.3V5.6h-1.9v-1h5.1v1z"/><path d="M168.7 4.1h-.6l.6-1.1h1.3l-1.3 1.1zm2 5.7h-3.8V4.6h3.8v.9h-2.5v1.1h2.4v.9h-2.4v1.2h2.5v1.1z" fill-rule="nonzero"/></g><path d="M0 9.7L5.6 19c-.4-1.7-1.1-4.9-1.1-4.9.8.6 9.1 3.5 10.8 4-1.1-1.8-2.9-3.5-4.6-5.3 1.2 1.2 3.3 2.4 5 3.5.6.4 1.3.8 2 1.2-.1-1.9-1-3.9-1.7-5.7.5 1.4 2.1 2.9 3.2 4.3.3.4.7.7 1.1 1.1.9-1.9 1.3-3.9 1.3-5.7 0 1.7.3 3.9 1.3 5.7.5-.5.9-.9 1.3-1.4 1.1-1.2 2.5-2.7 3-4-.7 1.9-1.6 3.8-1.7 5.7 2.7-1.4 4.8-3.2 6.9-4.7-1.7 1.2-2.8 2.9-3.9 4.3-.2.3-.5.6-.7 1h.1c1.7-.5 9.9-3 9.9-3l-13 6.3 12.9-6.1-.7 3.9.2.5 6-10H0" fill="#C7AE8F"/><path d="M21.3.7C8.6-.2 1.5 2 .2 2.3v3.6c3.7-.8 10.3-2 19.7-2.3 12.9-.3 20.8 1.3 23 1.8 0 0-7.5-3.5-21.6-4.7m16.6 35c-5.5 6.6-13 11.4-16.1 12.8C17.1 46.4 6 38.7 1 23.9c-.1-.4-.2-.8-.3-1.3.1.5.1 1.1.2 1.6.2.9.4 1.9.6 2.8 4.7 15.9 16 24.1 20.3 26.4 3.3-1.7 10.7-8.1 16.1-17.7" fill="#7B102A"/><path d="M5.2 15.1l2.4 14.2s5.6 8.4 13.6 12.9V23.5l-16-8.4m17.2 7.8v19.2c.2-.1.3-.2.5-.3.1-.1.3-.2.4-.2V22.7l-.9.2" fill="#A4845C" fill-rule="nonzero"/><path d="M38.8 14.4s-13.1 6.8-17.1 7.2c-4.4-.4-16.5-6.5-16.5-6.5 7.8 6.5 16.3 8.5 16.6 8.6 0 0 6.4-1.3 15.2-7.5-.1 1.4-.5 5.4-1.2 10l3-11.8" fill="#7B102A"/></g></svg>